PathFileType	4	(X/Y/Z)	C:/Users/beibeiliu/ov580/test_trc\sequence.8_training_dense_right.trc
DataRate	CameraRate	NumFrames	NumMarkers	Units	OrigDataRate	OrigDataStartFrame	OrigNumFrames
120	120	10	19	mm	120	282	375
Frame#	Time	ThumbCMC			ThumbMCP			ThumbIP			ThumbTip			IndexMCP			IndexPIP			IndexTip			MiddleMCP			MiddlePIP			MiddleTip			RingMCP			RingPIP			RingTip			PinkyMCP			PinkyPIP			PinkyTip			BackHand1			BackHand2			BackHand3	
		X0	Y0	Z0	X1	Y1	Z1	X2	Y2	Z2	X3	Y3	Z3	X4	Y4	Z4	X5	Y5	Z5	X6	Y6	Z6	X7	Y7	Z7	X8	Y8	Z8	X9	Y9	Z9	X10	Y10	Z10	X11	Y11	Z11	X12	Y12	Z12	X13	Y13	Z13	X14	Y14	Z14	X15	Y15	Z15	X16	Y16	Z16	X17	Y17	Z17	X18	Y18	Z18	
281	2.34167	255.973	-11.3634	0.625938	266.596	0.496829	-20.4235	280.475	11.7742	-31.6467	286.822	28.6586	-35.9335	292.867	-28.6836	-48.5131	270.421	-20.1209	-65.2105	253.763	-21.6378	-41.9278	284.017	-45.7665	-55.1332	257.054	-30.8464	-66.1078	244.872	-31.6449	-36.6449	271.534	-58.8768	-52.7341	248.484	-42.1046	-57.7364	244.216	-39.3557	-29.2566	262.195	-70.1382	-48.5682	243.405	-53.8091	-52.5804	239.87	-49.3236	-23.5078	270.609	-63.4541	-6.20014	253.056	-58.9465	15.1454	271.745	-36.5193	8.01741	
282	2.35	256.275	-8.10692	-0.43644	262.965	5.66258	-20.3665	273.243	16.6654	-31.4531	281.129	30.1743	-38.5635	291.168	-20.6426	-53.3747	267.967	-20.5312	-66.863	252.38	-20.9866	-41.0878	281.429	-42.033	-59.4279	254.801	-30.4311	-66.2249	245.359	-27.6958	-35.6998	269.945	-52.1747	-58.0504	247.61	-40.4729	-57.5483	243.973	-36.7502	-30.7481	262.963	-67.812	-49.7649	241.836	-50.2365	-51.5071	243.888	-44.5265	-25.3177	272.558	-63.5795	-5.65009	253.532	-56.1862	16.7235	274.44	-33.6164	7.20017	
283	2.35833	254.637	-6.98168	-1.92489	261.185	6.60502	-24.3236	270.076	19.1367	-36.3884	277.754	33.4655	-43.4165	290.78	-17.059	-52.0862	263.45	-16.2719	-67.5461	249.175	-15.6472	-41.3566	282.173	-36.2011	-57.7669	254.258	-29.4155	-67.7554	243.812	-27.7092	-37.4643	269.872	-52.8496	-57.9921	245.204	-39.1087	-58.6074	241.458	-37.6213	-32.2786	262.07	-66.9911	-51.3091	240.665	-52.2124	-54.1581	243.024	-45.0412	-29.8411	273.271	-58.6832	-8.90111	255.238	-58.3561	14.1475	273.291	-31.3821	6.48413	
284	2.36667	250.972	-6.24019	-2.57082	255.367	9.80974	-25.5458	261.138	22.7161	-35.744	268.042	41.4152	-45.3854	286.582	-10.8565	-53.6098	261.374	-9.98567	-70.8246	244.888	-11.3344	-44.0645	279.583	-30.7473	-61.1944	250.399	-24.6228	-69.5266	242.541	-22.8194	-37.8112	269.523	-46.7646	-61.3913	245.106	-39.1485	-61.9831	242.285	-34.7194	-31.7756	262.68	-58.2141	-54.1755	242.885	-44.958	-53.9048	243.014	-42.7786	-31.4977	274.025	-56.3524	-11.6096	257.621	-54.0856	15.1548	272.003	-30.9862	5.46619	
285	2.375	250.063	-3.63559	-5.15762	251.078	9.05051	-27.9477	255.136	25.3969	-39.5882	259.511	40.2065	-49.4957	281.85	-5.80345	-57.1054	257.751	-10.795	-72.2495	240.526	-10.5831	-47.6933	277.937	-24.8023	-61.3229	247.855	-22.3625	-70.3577	239.357	-23.9745	-40.4562	267.274	-43.7795	-62.5828	244.216	-36.1068	-64.2366	239.472	-36.2198	-33.4828	262.203	-58.1648	-56.9887	240.915	-45.1398	-55.6587	238.611	-41.2296	-32.4999	276.482	-47.4931	-9.67308	262.586	-48.9347	10.365	270.04	-22.8241	4.43502	
286	2.38333	245.088	-2.07669	-6.94226	243.937	12.5867	-29.3979	246.321	28.447	-42.5974	248.176	43.1428	-52.3479	276.585	-4.40955	-59.2773	254.284	-7.52313	-74.8914	235.569	-10.9052	-50.6085	272.921	-23.9575	-66.719	245.91	-26.3361	-73.4588	237.062	-20.8089	-40.4853	266.429	-39.6962	-64.3551	240.044	-34.3989	-61.8626	238.494	-32.3806	-36.7345	264.312	-56.866	-54.7459	241.018	-47.037	-57.6254	238.847	-41.1274	-29.9489	275.47	-44.843	-11.286	261.515	-45.239	12.1608	269.794	-15.8407	2.32824	
287	2.39167	237.702	2.997	-5.38488	235.867	13.2922	-30.5695	237.79	29.1348	-44.04	239.926	41.9115	-56.0639	270.956	1.74474	-61.1636	246.282	-2.98196	-76.4152	231.774	-12.8472	-48.567	270.121	-15.9922	-64.5768	242.171	-23.1414	-75.3032	233.727	-19.6096	-40.2687	265.017	-39.1023	-63.0831	236.621	-34.124	-61.4069	237.812	-33.882	-31.3381	261.953	-53.223	-57.2796	237.115	-46.5055	-54.2401	237.035	-38.5433	-34.472	277.12	-40.4113	-12.3211	263.759	-41.2267	8.23615	264.351	-10.1628	-0.727873	
288	2.4	230.075	5.7668	-6.36511	228.247	18.0303	-32.5239	229.344	31.4343	-49.4707	226.74	46.722	-59.1062	263.221	4.2928	-64.6416	241.307	-5.01607	-78.6405	227.8	-13.0076	-49.6647	263.095	-14.4267	-70.3758	235.734	-24.0174	-73.6658	227.79	-19.902	-43.6763	261.796	-31.014	-62.5615	234.217	-34.2013	-63.0705	234.846	-27.6625	-33.9988	258.971	-48.8701	-58.821	236.061	-48.3177	-57.3144	238.066	-35.7756	-29.8649	273.175	-32.1292	-12.6166	262.629	-30.9725	8.17094	260.335	-9.58543	-2.16499	
289	2.40833	226.217	7.43446	-10.1147	218.756	16.7151	-33.3281	214.743	31.0739	-48.7888	214.532	40.7259	-62.122	254.494	11.5388	-67.2263	234.459	-4.176	-80.1616	220.488	-9.69912	-55.21	257.003	-7.86905	-70.6527	232.369	-22.4421	-77.365	224.828	-21.8265	-44.3043	254.701	-28.5696	-67.6134	228.662	-33.8663	-63.2676	230.419	-29.5999	-35.459	255.573	-45.4533	-61.5232	233.204	-41.0346	-56.4637	232.685	-35.6424	-34.1627	269.852	-29.5821	-16.7406	259.887	-30.9321	7.78406	257.724	-0.972917	-5.17044	
290	2.41667	219.263	9.49355	-12.0357	211.663	16.5105	-38.448	208.631	29.812	-55.4595	202.806	43.5634	-65.603	244.857	14.2883	-73.1021	225.491	-4.98147	-81.7616	216.19	-12.195	-57.8979	250.191	-7.7128	-75.2528	224.184	-21.0574	-77.2245	221.151	-18.9434	-44.2136	251.937	-23.8444	-68.1667	225.941	-32.3788	-63.9935	226.533	-25.0641	-37.2814	257.226	-43.1963	-59.7695	230.67	-38.6952	-57.4836	230.841	-34.7637	-31.1249	268.196	-23.1414	-20.5619	258.324	-24.8433	4.46023	252.562	3.27272	-9.15742	
